<?xml version="1.0" encoding="UTF-8"?>
<!DOCTYPE svg PUBLIC "-//W3C//DTD SVG 1.1//EN" "http://www.w3.org/Graphics/SVG/1.1/DTD/svg11.dtd">
<svg xmlns="http://www.w3.org/2000/svg" version="1.1" width="462px" height="384px" style="shape-rendering:geometricPrecision; text-rendering:geometricPrecision; image-rendering:optimizeQuality; fill-rule:evenodd; clip-rule:evenodd" xmlns:xlink="http://www.w3.org/1999/xlink">
<g><path style="opacity:0.977" fill="#21a048" d="M 340.5,-0.5 C 340.833,-0.5 341.167,-0.5 341.5,-0.5C 330.482,47.0955 319.148,94.5955 307.5,142C 358.832,142.5 410.166,142.667 461.5,142.5C 461.5,143.167 461.5,143.833 461.5,144.5C 400.657,176.172 340.157,208.505 280,241.5C 267.495,288.857 254.995,336.19 242.5,383.5C 242.167,383.5 241.833,383.5 241.5,383.5C 226.956,347.407 212.122,311.407 197,275.5C 131.469,311.847 65.6356,347.513 -0.5,382.5C -0.5,382.167 -0.5,381.833 -0.5,381.5C 41.0229,334.142 82.0229,286.308 122.5,238C 98.9602,206.428 75.2936,174.928 51.5,143.5C 104.83,142.667 158.164,142.167 211.5,142C 254.39,94.3736 297.39,46.8736 340.5,-0.5 Z M 288.5,92.5 C 289.097,92.7352 289.43,93.2352 289.5,94C 281.91,124.86 274.243,155.693 266.5,186.5C 241.339,192.832 216.006,198.332 190.5,203C 223.375,166.295 256.041,129.462 288.5,92.5 Z"/></g>
</svg>
