<svg width="168" height="68" viewBox="0 0 168 68" fill="none" xmlns="http://www.w3.org/2000/svg">
<g clip-path="url(#clip0_3_69)">
<path d="M33.9291 58.7207C27.3823 58.7207 21.1036 56.1162 16.4742 51.4802C11.8449 46.8442 9.24416 40.5564 9.24416 34C9.24416 27.4437 11.8449 21.1559 16.4742 16.5198C21.1036 11.8838 27.3823 9.27929 33.9291 9.27929V0.891907C15.6799 0.891907 0.868896 15.7243 0.868896 34C0.868896 52.2757 15.6799 67.1081 33.9291 67.1081V58.7207Z" fill="url(#paint0_linear_3_69)"/>
<path d="M33.9291 41.946C38.3112 41.946 41.8636 38.3884 41.8636 34C41.8636 29.6116 38.3112 26.0541 33.9291 26.0541C29.5471 26.0541 25.9947 29.6116 25.9947 34C25.9947 38.3884 29.5471 41.946 33.9291 41.946Z" fill="url(#paint1_linear_3_69)"/>
<path d="M33.9291 9.27927V17.6667C38.2547 17.6667 42.4032 19.3875 45.4619 22.4506C48.5205 25.5137 50.2389 29.6681 50.2389 34C50.2389 38.3319 48.5205 42.4863 45.4619 45.5494C42.4032 48.6125 38.2547 50.3333 33.9291 50.3333V58.7207C40.476 58.7207 46.7547 56.1162 51.3841 51.4802C56.0134 46.8441 58.6141 40.5563 58.6141 34C58.6141 27.4436 56.0134 21.1558 51.3841 16.5198C46.7547 11.8838 40.476 9.27927 33.9291 9.27927Z" fill="url(#paint2_linear_3_69)"/>
<path d="M33.9292 41.9459C32.3599 41.9459 30.8258 41.4799 29.521 40.6068C28.2162 39.7337 27.1992 38.4927 26.5987 37.0408C25.9981 35.5889 25.841 33.9912 26.1472 32.4498C26.4533 30.9085 27.209 29.4926 28.3187 28.3814C29.4283 27.2701 30.8421 26.5133 32.3812 26.2067C33.9204 25.9001 35.5157 26.0575 36.9656 26.6589C38.4154 27.2603 39.6546 28.2788 40.5264 29.5855C41.3983 30.8922 41.8636 32.4284 41.8636 34H50.2389C50.2389 30.7696 49.2824 27.6117 47.4902 24.9257C45.6981 22.2397 43.1508 20.1462 40.1706 18.91C37.1904 17.6737 33.9111 17.3503 30.7473 17.9805C27.5835 18.6107 24.6774 20.1663 22.3965 22.4506C20.1155 24.7348 18.5622 27.6452 17.9328 30.8135C17.3035 33.9819 17.6265 37.266 18.861 40.2505C20.0954 43.235 22.1859 45.7859 24.868 47.5807C27.5501 49.3754 30.7034 50.3333 33.9292 50.3333V41.9459Z" fill="url(#paint3_linear_3_69)"/>
<path d="M74.9327 45.9949H74.908L72.2508 41.0631H70.7151L74.2274 47.4711L74.178 47.5593C73.8377 48.2515 73.4216 48.7195 72.5788 48.7195C72.3316 48.7171 72.0857 48.6832 71.8471 48.6188V49.8284C72.1354 49.9446 72.4444 50.0004 72.7551 49.9926C73.9894 49.9926 74.8322 49.2739 75.437 47.9372L78.5226 41.0631H77.0997L74.9327 45.9949ZM85.9369 44.7836H81.5906V41.0631H80.2135V49.8919H81.5976V46.0443H85.944V49.8919H87.3281V41.0631H85.944L85.9369 44.7836ZM91.3094 47.6212H91.2724V41.0631H89.8865V49.8919H91.1454L95.9678 43.3339H95.9943V49.8919H97.3784V41.0631H96.1195L91.3094 47.6212ZM105.022 45.1491C105.354 44.9934 105.633 44.7451 105.828 44.4341C106.022 44.1231 106.122 43.7625 106.117 43.3957C106.117 42.1349 105.047 41.0631 103.472 41.0631H99.9456V49.8919H103.664C105.366 49.8919 106.561 48.693 106.561 47.3068C106.558 46.1467 105.664 45.3892 105.022 45.1491ZM101.332 42.2621H103.472C104.228 42.2621 104.731 42.7653 104.731 43.4592C104.731 44.1532 104.228 44.6582 103.472 44.6582H101.332V42.2621ZM103.664 48.693H101.332V45.7936H103.664C104.546 45.7936 105.175 46.424 105.175 47.2433C105.175 48.0626 104.546 48.693 103.664 48.693ZM110.012 45.9437H113.854V44.6829H110.001V42.3239H114.85V41.0631H108.617V49.8919H114.977V48.6312H110.001L110.012 45.9437ZM120.395 41.0631H116.869V49.8919H118.253V46.7383H120.395C122.095 46.7383 123.354 45.4775 123.354 43.9007C123.354 42.3239 122.085 41.0631 120.385 41.0631H120.395ZM120.395 45.4775H118.242V42.3239H120.385C120.802 42.3239 121.203 42.49 121.498 42.7857C121.793 43.0814 121.959 43.4825 121.959 43.9007C121.959 44.3189 121.793 44.72 121.498 45.0157C121.203 45.3114 120.802 45.4775 120.385 45.4775H120.395ZM129.494 48.7565C128.625 48.7565 127.792 48.4111 127.178 47.7961C126.564 47.1812 126.219 46.3472 126.219 45.4775C126.219 44.6079 126.564 43.7738 127.178 43.1589C127.792 42.5439 128.625 42.1985 129.494 42.1985C129.994 42.1921 130.49 42.2987 130.943 42.5106C131.397 42.7225 131.797 43.034 132.114 43.4222L133.083 42.6276C132.648 42.0966 132.1 41.6694 131.479 41.3771C130.858 41.0848 130.18 40.9347 129.494 40.9377C126.849 40.9377 124.833 42.9542 124.833 45.4775C124.833 48.0008 126.849 50.0173 129.494 50.0173C130.192 50.0176 130.882 49.8629 131.513 49.5643C132.144 49.2657 132.702 48.8306 133.145 48.2904L132.175 47.4958C131.65 48.075 130.842 48.7565 129.483 48.7565H129.494ZM136.345 47.6212H136.307V41.0631H134.921V49.8919H136.181L141.004 43.3339H141.03V49.8919H142.414V41.0631H141.155L136.345 47.6212ZM144.126 42.3239H146.771V49.8919H148.157V42.3239H150.802V41.0631H144.116L144.126 42.3239ZM153.891 45.9437H157.733V44.6829H153.881V42.3239H158.729V41.0631H152.495V49.8919H158.853V48.6312H153.881L153.891 45.9437ZM160.225 41.0631V42.3239H162.869V49.8919H164.255V42.3239H166.9V41.0631H160.225Z" fill="white"/>
<path d="M80.8694 25.3548L72.302 16.1322H70.9567V34H74.7141V23.9351L80.344 29.8505H81.4019L87.0319 23.9316V33.9965H90.7893V16.1322H89.4351L80.8694 25.3548ZM98.0079 26.9581V16.3424H94.2522V34.2101H95.7051L106.662 23.386V34H110.417V16.1322H108.964L98.0079 26.9581ZM122.01 19.5631C123.962 19.5631 125.703 20.6226 126.845 22.3601L129.49 19.7997C128.635 18.6125 127.512 17.6449 126.212 16.9762C124.912 16.3074 123.472 15.9565 122.01 15.9521C116.936 15.9521 112.665 19.9604 112.665 25.1712C112.665 30.382 116.945 34.3902 122.01 34.3902C123.472 34.3859 124.912 34.035 126.212 33.3662C127.512 32.6974 128.635 31.7298 129.49 30.5426L126.845 27.9823C125.703 29.7198 123.962 30.7793 122.01 30.7793C118.98 30.7793 116.511 28.452 116.511 25.1712C116.511 21.8904 118.98 19.5631 122.01 19.5631ZM135.649 26.9581V16.3424H131.892V34.2101H133.346L144.306 23.386V34H148.064V16.1322H146.609L135.649 26.9581ZM159.652 30.7793C156.619 30.7793 154.152 28.452 154.152 25.1712C154.152 21.8904 156.621 19.5631 159.652 19.5631C161.603 19.5631 163.344 20.6226 164.485 22.3601L167.129 19.7997C166.274 18.6127 165.151 17.6453 163.851 16.9765C162.551 16.3078 161.111 15.9568 159.65 15.9521C154.574 15.9521 150.294 19.9604 150.294 25.1712C150.294 30.382 154.574 34.3902 159.65 34.3902C161.113 34.3873 162.555 34.037 163.857 33.3682C165.159 32.6994 166.284 31.7311 167.14 30.5426L164.495 27.9823C163.344 29.7198 161.603 30.7793 159.652 30.7793Z" fill="white"/>
</g>
<defs>
<linearGradient id="paint0_linear_3_69" x1="14.733" y1="64.2352" x2="26.1607" y2="-0.479735" gradientUnits="userSpaceOnUse">
<stop offset="0.05" stop-color="#0541F0"/>
<stop offset="0.21" stop-color="#126CF4"/>
<stop offset="0.44" stop-color="#22A2F9"/>
<stop offset="0.64" stop-color="#2DCAFC"/>
<stop offset="0.8" stop-color="#34E2FE"/>
<stop offset="0.9" stop-color="#37EBFF"/>
</linearGradient>
<linearGradient id="paint1_linear_3_69" x1="28.3186" y1="39.6187" x2="39.5559" y2="28.3976" gradientUnits="userSpaceOnUse">
<stop offset="0.06" stop-color="#37EBFF"/>
<stop offset="0.19" stop-color="#36E7FF"/>
<stop offset="0.32" stop-color="#32DAFE"/>
<stop offset="0.45" stop-color="#2CC6FC"/>
<stop offset="0.58" stop-color="#23A9F9"/>
<stop offset="0.71" stop-color="#1883F6"/>
<stop offset="0.85" stop-color="#0B56F2"/>
<stop offset="0.9" stop-color="#0541F0"/>
</linearGradient>
<linearGradient id="paint2_linear_3_69" x1="33.6312" y1="58.6112" x2="50.0515" y2="13.5624" gradientUnits="userSpaceOnUse">
<stop offset="0.05" stop-color="#37EBFF"/>
<stop offset="0.16" stop-color="#2DC8FC"/>
<stop offset="0.34" stop-color="#1F98F8"/>
<stop offset="0.51" stop-color="#1472F4"/>
<stop offset="0.66" stop-color="#0C57F2"/>
<stop offset="0.8" stop-color="#0747F1"/>
<stop offset="0.9" stop-color="#0541F0"/>
</linearGradient>
<linearGradient id="paint3_linear_3_69" x1="20.7086" y1="43.8583" x2="43.8066" y2="20.7919" gradientUnits="userSpaceOnUse">
<stop offset="0.11" stop-color="#0541F0"/>
<stop offset="0.89" stop-color="#37EBFF"/>
</linearGradient>
<clipPath id="clip0_3_69">
<rect width="168" height="68" fill="white"/>
</clipPath>
</defs>
</svg>
